<svg
    width="139"
    height="36"
    viewBox="0 0 139 36"
    fill="none"
    xmlns="http://www.w3.org/2000/svg"
>
    <circle cx="18" cy="18" r="18" fill="#F5F5F5" />
    <g clip-path="url(#clip0)">
        <path
            d="M24.6544 12.1508C24.2855 12.0429 15.2624 11.1445 12.0936 15.4257C10.6902 17.3222 10.6691 19.9221 12.0233 23.1525C11.6798 23.8655 11.379 24.6166 11.134 25.4091C11.0594 25.6499 11.1942 25.9052 11.4348 25.9795C11.4796 25.9934 11.525 26 11.5699 26C11.7643 26 11.9449 25.8744 12.0052 25.6787C14.4204 17.8703 22.2693 14.0927 24.6762 13.1383C24.9105 13.0454 25.2235 12.3174 24.6544 12.1508Z"
            fill="#84829A"
        />
        <path
            d="M13.4719 24.1298C14.7783 24.6778 16.0845 24.9587 17.2992 24.9587C18.391 24.9587 19.4092 24.7342 20.2866 24.279C22.0525 23.363 23.1315 21.6108 23.4071 19.2113C23.6878 16.7659 24.0373 15.2342 24.3289 14.2971C21.7336 15.4943 16.1688 18.5974 13.4719 24.1298Z"
            fill="#84829A"
        />
    </g>
    <circle cx="121" cy="18" r="18" fill="#F5F5F5" />
    <path
        d="M126.343 13.2424L120.026 19.5832C119.953 19.5413 119.877 19.5061 119.798 19.4782L115.627 18.0666C115.501 18.0349 115.389 17.9621 115.309 17.8596C115.229 17.7571 115.186 17.6308 115.186 17.5007C115.186 17.3707 115.229 17.2444 115.309 17.1419C115.389 17.0394 115.501 16.9665 115.627 16.9349L125.976 13.2541C126.043 13.2311 126.114 13.2193 126.186 13.2191C126.239 13.2182 126.292 13.2261 126.343 13.2424Z"
        fill="#84829A"
    />
    <path
        d="M126.746 14.0242L123.065 24.3842C123.024 24.505 122.945 24.6091 122.84 24.6807C122.735 24.7524 122.609 24.7875 122.482 24.7809C122.353 24.7868 122.226 24.7499 122.121 24.6761C122.015 24.6022 121.937 24.4955 121.898 24.3726L120.51 20.2017C120.482 20.1228 120.447 20.0467 120.405 19.9742L126.758 13.6567C126.793 13.7773 126.789 13.9062 126.746 14.0242Z"
        fill="#84829A"
    />
    <circle cx="72" cy="18" r="18" fill="#F5F5F5" />
    <g clip-path="url(#clip1)">
        <path
            d="M77.5009 11C77.4232 11 77.3466 11.018 77.2771 11.0527L73.4882 12.9477L69.2038 11.0432C69.1968 11.0403 69.1888 11.0397 69.1813 11.0367C69.162 11.0295 69.1423 11.0235 69.1223 11.0187C69.1024 11.0134 69.0822 11.0092 69.0618 11.0062C69.0212 11.0029 68.9804 11.0029 68.9398 11.0062C68.9194 11.0092 68.8992 11.0134 68.8793 11.0187C68.8593 11.0235 68.8396 11.0295 68.8203 11.0367C68.8128 11.0397 68.8048 11.0402 68.7978 11.0432L64.2979 13.0432C64.1172 13.1234 64.0008 13.3026 64.0009 13.5002V24.5C64.0009 24.6692 64.0865 24.8268 64.2283 24.919C64.3702 25.0114 64.5491 25.0257 64.7038 24.957L69.0008 23.047L73.2977 24.957C73.3052 24.96 73.3132 24.957 73.3207 24.9615C73.4417 25.0157 73.5807 25.0126 73.6992 24.953C73.7072 24.9496 73.7162 24.953 73.7242 24.9475L77.7241 22.9476C77.8936 22.8629 78.0007 22.6896 78.0006 22.5V11.5002C78.0008 11.2241 77.777 11.0001 77.5009 11ZM68.5008 22.1751L65.0008 23.7305V13.8252L68.5008 12.2697V22.1751ZM73.0007 23.7305L69.5008 22.1751V12.2697L73.0007 13.8252V23.7305ZM77.0006 22.1911L74.0007 23.691V13.8092L77.0006 12.3092V22.1911Z"
            fill="#84829A"
        />
    </g>
    <defs>
        <clipPath id="clip0">
            <rect
                width="14"
                height="14"
                fill="white"
                transform="translate(11 12)"
            />
        </clipPath>
        <clipPath id="clip1">
            <rect
                width="14"
                height="14"
                fill="white"
                transform="translate(64 11)"
            />
        </clipPath>
    </defs>
</svg>